<?xml version="1.0" standalone="no"?>
<svg viewBox="0 0 200 200" xmlns="http://www.w3.org/2000/svg">
  <path fill="#000000" d="M43.5,-60.3C57.9,-49.3,72.2,-38.7,75.6,-25.2C79.1,-11.8,71.7,4.6,63.5,17.8C55.3,31,46.2,41.1,35.5,53.8C24.8,66.5,12.4,81.7,-0.6,82.6C-13.7,83.5,-27.4,70,-42.4,58.7C-57.5,47.4,-73.9,38.4,-78.6,25.2C-83.3,12.1,-76.2,-5.2,-67.9,-19.3C-59.5,-33.4,-49.9,-44.4,-38.4,-56.3C-26.8,-68.2,-13.4,-80.9,0.6,-81.7C14.5,-82.4,29,-71.2,43.5,-60.3Z" transform="translate(100 100)" />
</svg>
